<?xml version="1.0" encoding="utf-8"?>
<svg xmlns="http://www.w3.org/2000/svg" xmlns:xlink="http://www.w3.org/1999/xlink" width="300" height="500" viewBox="0 0 1200 2000">
<defs>
  <clipPath id="clip820">
    <rect x="0" y="0" width="1200" height="2000"/>
  </clipPath>
</defs>
<path clip-path="url(#clip820)" d="M0 2000 L1200 2000 L1200 0 L0 0  Z" fill="#ffffff" fill-rule="evenodd" fill-opacity="1"/>
<defs>
  <clipPath id="clip821">
    <rect x="130" y="47" width="1024" height="1819"/>
  </clipPath>
</defs>
<path clip-path="url(#clip820)" d="M130.117 1865.17 L1152.76 1865.17 L1152.76 47.2441 L130.117 47.2441  Z" fill="#ffffff" fill-rule="evenodd" fill-opacity="1"/>
<polyline clip-path="url(#clip821)" style="stroke:#000000; stroke-linecap:round; stroke-linejoin:round; stroke-width:2; stroke-opacity:0.1; fill:none" points="133.671,1865.17 133.671,47.2441 "/>
<polyline clip-path="url(#clip821)" style="stroke:#000000; stroke-linecap:round; stroke-linejoin:round; stroke-width:2; stroke-opacity:0.1; fill:none" points="387.554,1865.17 387.554,47.2441 "/>
<polyline clip-path="url(#clip821)" style="stroke:#000000; stroke-linecap:round; stroke-linejoin:round; stroke-width:2; stroke-opacity:0.1; fill:none" points="641.436,1865.17 641.436,47.2441 "/>
<polyline clip-path="url(#clip821)" style="stroke:#000000; stroke-linecap:round; stroke-linejoin:round; stroke-width:2; stroke-opacity:0.1; fill:none" points="895.319,1865.17 895.319,47.2441 "/>
<polyline clip-path="url(#clip821)" style="stroke:#000000; stroke-linecap:round; stroke-linejoin:round; stroke-width:2; stroke-opacity:0.1; fill:none" points="1149.2,1865.17 1149.2,47.2441 "/>
<polyline clip-path="url(#clip821)" style="stroke:#000000; stroke-linecap:round; stroke-linejoin:round; stroke-width:2; stroke-opacity:0.1; fill:none" points="130.117,1717.85 1152.76,1717.85 "/>
<polyline clip-path="url(#clip821)" style="stroke:#000000; stroke-linecap:round; stroke-linejoin:round; stroke-width:2; stroke-opacity:0.1; fill:none" points="130.117,1463.97 1152.76,1463.97 "/>
<polyline clip-path="url(#clip821)" style="stroke:#000000; stroke-linecap:round; stroke-linejoin:round; stroke-width:2; stroke-opacity:0.1; fill:none" points="130.117,1210.09 1152.76,1210.09 "/>
<polyline clip-path="url(#clip821)" style="stroke:#000000; stroke-linecap:round; stroke-linejoin:round; stroke-width:2; stroke-opacity:0.1; fill:none" points="130.117,956.206 1152.76,956.206 "/>
<polyline clip-path="url(#clip821)" style="stroke:#000000; stroke-linecap:round; stroke-linejoin:round; stroke-width:2; stroke-opacity:0.1; fill:none" points="130.117,702.323 1152.76,702.323 "/>
<polyline clip-path="url(#clip821)" style="stroke:#000000; stroke-linecap:round; stroke-linejoin:round; stroke-width:2; stroke-opacity:0.1; fill:none" points="130.117,448.441 1152.76,448.441 "/>
<polyline clip-path="url(#clip821)" style="stroke:#000000; stroke-linecap:round; stroke-linejoin:round; stroke-width:2; stroke-opacity:0.1; fill:none" points="130.117,194.558 1152.76,194.558 "/>
<polyline clip-path="url(#clip820)" style="stroke:#000000; stroke-linecap:round; stroke-linejoin:round; stroke-width:4; stroke-opacity:1; fill:none" points="130.117,1865.17 1152.76,1865.17 "/>
<polyline clip-path="url(#clip820)" style="stroke:#000000; stroke-linecap:round; stroke-linejoin:round; stroke-width:4; stroke-opacity:1; fill:none" points="133.671,1865.17 133.671,1846.27 "/>
<polyline clip-path="url(#clip820)" style="stroke:#000000; stroke-linecap:round; stroke-linejoin:round; stroke-width:4; stroke-opacity:1; fill:none" points="387.554,1865.17 387.554,1846.27 "/>
<polyline clip-path="url(#clip820)" style="stroke:#000000; stroke-linecap:round; stroke-linejoin:round; stroke-width:4; stroke-opacity:1; fill:none" points="641.436,1865.17 641.436,1846.27 "/>
<polyline clip-path="url(#clip820)" style="stroke:#000000; stroke-linecap:round; stroke-linejoin:round; stroke-width:4; stroke-opacity:1; fill:none" points="895.319,1865.17 895.319,1846.27 "/>
<polyline clip-path="url(#clip820)" style="stroke:#000000; stroke-linecap:round; stroke-linejoin:round; stroke-width:4; stroke-opacity:1; fill:none" points="1149.2,1865.17 1149.2,1846.27 "/>
<path clip-path="url(#clip820)" d="M87.7339 1907.54 L117.41 1907.54 L117.41 1911.47 L87.7339 1911.47 L87.7339 1907.54 Z" fill="#000000" fill-rule="nonzero" fill-opacity="1" /><path clip-path="url(#clip820)" d="M140.349 1893.88 L128.544 1912.33 L140.349 1912.33 L140.349 1893.88 M139.123 1889.81 L145.002 1889.81 L145.002 1912.33 L149.933 1912.33 L149.933 1916.22 L145.002 1916.22 L145.002 1924.37 L140.349 1924.37 L140.349 1916.22 L124.748 1916.22 L124.748 1911.71 L139.123 1889.81 Z" fill="#000000" fill-rule="nonzero" fill-opacity="1" /><path clip-path="url(#clip820)" d="M167.664 1892.89 Q164.053 1892.89 162.224 1896.45 Q160.419 1899.99 160.419 1907.12 Q160.419 1914.23 162.224 1917.79 Q164.053 1921.34 167.664 1921.34 Q171.298 1921.34 173.104 1917.79 Q174.933 1914.23 174.933 1907.12 Q174.933 1899.99 173.104 1896.45 Q171.298 1892.89 167.664 1892.89 M167.664 1889.18 Q173.474 1889.18 176.53 1893.79 Q179.608 1898.37 179.608 1907.12 Q179.608 1915.85 176.53 1920.46 Q173.474 1925.04 167.664 1925.04 Q161.854 1925.04 158.775 1920.46 Q155.72 1915.85 155.72 1907.12 Q155.72 1898.37 158.775 1893.79 Q161.854 1889.18 167.664 1889.18 Z" fill="#000000" fill-rule="nonzero" fill-opacity="1" /><path clip-path="url(#clip820)" d="M341.617 1907.54 L371.292 1907.54 L371.292 1911.47 L341.617 1911.47 L341.617 1907.54 Z" fill="#000000" fill-rule="nonzero" fill-opacity="1" /><path clip-path="url(#clip820)" d="M385.413 1920.43 L401.732 1920.43 L401.732 1924.37 L379.788 1924.37 L379.788 1920.43 Q382.45 1917.68 387.033 1913.05 Q391.639 1908.4 392.82 1907.05 Q395.065 1904.53 395.945 1902.79 Q396.848 1901.03 396.848 1899.34 Q396.848 1896.59 394.903 1894.85 Q392.982 1893.12 389.88 1893.12 Q387.681 1893.12 385.227 1893.88 Q382.797 1894.65 380.019 1896.2 L380.019 1891.47 Q382.843 1890.34 385.297 1889.76 Q387.751 1889.18 389.788 1889.18 Q395.158 1889.18 398.352 1891.87 Q401.547 1894.55 401.547 1899.04 Q401.547 1901.17 400.737 1903.09 Q399.95 1904.99 397.843 1907.59 Q397.264 1908.26 394.163 1911.47 Q391.061 1914.67 385.413 1920.43 Z" fill="#000000" fill-rule="nonzero" fill-opacity="1" /><path clip-path="url(#clip820)" d="M421.547 1892.89 Q417.936 1892.89 416.107 1896.45 Q414.301 1899.99 414.301 1907.12 Q414.301 1914.23 416.107 1917.79 Q417.936 1921.34 421.547 1921.34 Q425.181 1921.34 426.986 1917.79 Q428.815 1914.23 428.815 1907.12 Q428.815 1899.99 426.986 1896.45 Q425.181 1892.89 421.547 1892.89 M421.547 1889.18 Q427.357 1889.18 430.412 1893.79 Q433.491 1898.37 433.491 1907.12 Q433.491 1915.85 430.412 1920.46 Q427.357 1925.04 421.547 1925.04 Q415.736 1925.04 412.658 1920.46 Q409.602 1915.85 409.602 1907.12 Q409.602 1898.37 412.658 1893.79 Q415.736 1889.18 421.547 1889.18 Z" fill="#000000" fill-rule="nonzero" fill-opacity="1" /><path clip-path="url(#clip820)" d="M641.436 1892.89 Q637.825 1892.89 635.997 1896.45 Q634.191 1899.99 634.191 1907.12 Q634.191 1914.23 635.997 1917.79 Q637.825 1921.34 641.436 1921.34 Q645.071 1921.34 646.876 1917.79 Q648.705 1914.23 648.705 1907.12 Q648.705 1899.99 646.876 1896.45 Q645.071 1892.89 641.436 1892.89 M641.436 1889.18 Q647.247 1889.18 650.302 1893.79 Q653.381 1898.37 653.381 1907.12 Q653.381 1915.85 650.302 1920.46 Q647.247 1925.04 641.436 1925.04 Q635.626 1925.04 632.548 1920.46 Q629.492 1915.85 629.492 1907.12 Q629.492 1898.37 632.548 1893.79 Q635.626 1889.18 641.436 1889.18 Z" fill="#000000" fill-rule="nonzero" fill-opacity="1" /><path clip-path="url(#clip820)" d="M874.092 1920.43 L890.412 1920.43 L890.412 1924.37 L868.467 1924.37 L868.467 1920.43 Q871.129 1917.68 875.713 1913.05 Q880.319 1908.4 881.5 1907.05 Q883.745 1904.53 884.625 1902.79 Q885.527 1901.03 885.527 1899.34 Q885.527 1896.59 883.583 1894.85 Q881.662 1893.12 878.56 1893.12 Q876.361 1893.12 873.907 1893.88 Q871.476 1894.65 868.699 1896.2 L868.699 1891.47 Q871.523 1890.34 873.976 1889.76 Q876.43 1889.18 878.467 1889.18 Q883.838 1889.18 887.032 1891.87 Q890.226 1894.55 890.226 1899.04 Q890.226 1901.17 889.416 1903.09 Q888.629 1904.99 886.523 1907.59 Q885.944 1908.26 882.842 1911.47 Q879.74 1914.67 874.092 1920.43 Z" fill="#000000" fill-rule="nonzero" fill-opacity="1" /><path clip-path="url(#clip820)" d="M910.226 1892.89 Q906.615 1892.89 904.787 1896.45 Q902.981 1899.99 902.981 1907.12 Q902.981 1914.23 904.787 1917.79 Q906.615 1921.34 910.226 1921.34 Q913.861 1921.34 915.666 1917.79 Q917.495 1914.23 917.495 1907.12 Q917.495 1899.99 915.666 1896.45 Q913.861 1892.89 910.226 1892.89 M910.226 1889.18 Q916.036 1889.18 919.092 1893.79 Q922.171 1898.37 922.171 1907.12 Q922.171 1915.85 919.092 1920.46 Q916.036 1925.04 910.226 1925.04 Q904.416 1925.04 901.337 1920.46 Q898.282 1915.85 898.282 1907.12 Q898.282 1898.37 901.337 1893.79 Q904.416 1889.18 910.226 1889.18 Z" fill="#000000" fill-rule="nonzero" fill-opacity="1" /><path clip-path="url(#clip820)" d="M1137.37 1893.88 L1125.57 1912.33 L1137.37 1912.33 L1137.37 1893.88 M1136.15 1889.81 L1142.03 1889.81 L1142.03 1912.33 L1146.96 1912.33 L1146.96 1916.22 L1142.03 1916.22 L1142.03 1924.37 L1137.37 1924.37 L1137.37 1916.22 L1121.77 1916.22 L1121.77 1911.71 L1136.15 1889.81 Z" fill="#000000" fill-rule="nonzero" fill-opacity="1" /><path clip-path="url(#clip820)" d="M1164.69 1892.89 Q1161.08 1892.89 1159.25 1896.45 Q1157.44 1899.99 1157.44 1907.12 Q1157.44 1914.23 1159.25 1917.79 Q1161.08 1921.34 1164.69 1921.34 Q1168.32 1921.34 1170.13 1917.79 Q1171.96 1914.23 1171.96 1907.12 Q1171.96 1899.99 1170.13 1896.45 Q1168.32 1892.89 1164.69 1892.89 M1164.69 1889.18 Q1170.5 1889.18 1173.55 1893.79 Q1176.63 1898.37 1176.63 1907.12 Q1176.63 1915.85 1173.55 1920.46 Q1170.5 1925.04 1164.69 1925.04 Q1158.88 1925.04 1155.8 1920.46 Q1152.74 1915.85 1152.74 1907.12 Q1152.74 1898.37 1155.8 1893.79 Q1158.88 1889.18 1164.69 1889.18 Z" fill="#000000" fill-rule="nonzero" fill-opacity="1" /><polyline clip-path="url(#clip820)" style="stroke:#000000; stroke-linecap:round; stroke-linejoin:round; stroke-width:4; stroke-opacity:1; fill:none" points="130.117,1865.17 130.117,47.2441 "/>
<polyline clip-path="url(#clip820)" style="stroke:#000000; stroke-linecap:round; stroke-linejoin:round; stroke-width:4; stroke-opacity:1; fill:none" points="130.117,1717.85 149.014,1717.85 "/>
<polyline clip-path="url(#clip820)" style="stroke:#000000; stroke-linecap:round; stroke-linejoin:round; stroke-width:4; stroke-opacity:1; fill:none" points="130.117,1463.97 149.014,1463.97 "/>
<polyline clip-path="url(#clip820)" style="stroke:#000000; stroke-linecap:round; stroke-linejoin:round; stroke-width:4; stroke-opacity:1; fill:none" points="130.117,1210.09 149.014,1210.09 "/>
<polyline clip-path="url(#clip820)" style="stroke:#000000; stroke-linecap:round; stroke-linejoin:round; stroke-width:4; stroke-opacity:1; fill:none" points="130.117,956.206 149.014,956.206 "/>
<polyline clip-path="url(#clip820)" style="stroke:#000000; stroke-linecap:round; stroke-linejoin:round; stroke-width:4; stroke-opacity:1; fill:none" points="130.117,702.323 149.014,702.323 "/>
<polyline clip-path="url(#clip820)" style="stroke:#000000; stroke-linecap:round; stroke-linejoin:round; stroke-width:4; stroke-opacity:1; fill:none" points="130.117,448.441 149.014,448.441 "/>
<polyline clip-path="url(#clip820)" style="stroke:#000000; stroke-linecap:round; stroke-linejoin:round; stroke-width:4; stroke-opacity:1; fill:none" points="130.117,194.558 149.014,194.558 "/>
<path clip-path="url(#clip820)" d="M8.24232 1718.31 L37.9181 1718.31 L37.9181 1722.24 L8.24232 1722.24 L8.24232 1718.31 Z" fill="#000000" fill-rule="nonzero" fill-opacity="1" /><path clip-path="url(#clip820)" d="M52.0384 1731.2 L68.3577 1731.2 L68.3577 1735.13 L46.4134 1735.13 L46.4134 1731.2 Q49.0754 1728.44 53.6587 1723.81 Q58.2652 1719.16 59.4458 1717.82 Q61.6911 1715.3 62.5707 1713.56 Q63.4735 1711.8 63.4735 1710.11 Q63.4735 1707.36 61.5291 1705.62 Q59.6078 1703.88 56.506 1703.88 Q54.3069 1703.88 51.8532 1704.65 Q49.4227 1705.41 46.6449 1706.96 L46.6449 1702.24 Q49.469 1701.11 51.9226 1700.53 Q54.3763 1699.95 56.4134 1699.95 Q61.7837 1699.95 64.9781 1702.63 Q68.1726 1705.32 68.1726 1709.81 Q68.1726 1711.94 67.3624 1713.86 Q66.5753 1715.76 64.4689 1718.35 Q63.8902 1719.02 60.7883 1722.24 Q57.6865 1725.43 52.0384 1731.2 Z" fill="#000000" fill-rule="nonzero" fill-opacity="1" /><path clip-path="url(#clip820)" d="M88.1725 1703.65 Q84.5614 1703.65 82.7327 1707.22 Q80.9271 1710.76 80.9271 1717.89 Q80.9271 1724.99 82.7327 1728.56 Q84.5614 1732.1 88.1725 1732.1 Q91.8067 1732.1 93.6122 1728.56 Q95.4409 1724.99 95.4409 1717.89 Q95.4409 1710.76 93.6122 1707.22 Q91.8067 1703.65 88.1725 1703.65 M88.1725 1699.95 Q93.9826 1699.95 97.0381 1704.56 Q100.117 1709.14 100.117 1717.89 Q100.117 1726.62 97.0381 1731.22 Q93.9826 1735.81 88.1725 1735.81 Q82.3623 1735.81 79.2836 1731.22 Q76.2281 1726.62 76.2281 1717.89 Q76.2281 1709.14 79.2836 1704.56 Q82.3623 1699.95 88.1725 1699.95 Z" fill="#000000" fill-rule="nonzero" fill-opacity="1" /><path clip-path="url(#clip820)" d="M88.1725 1449.77 Q84.5614 1449.77 82.7327 1453.33 Q80.9271 1456.88 80.9271 1464.01 Q80.9271 1471.11 82.7327 1474.68 Q84.5614 1478.22 88.1725 1478.22 Q91.8067 1478.22 93.6122 1474.68 Q95.4409 1471.11 95.4409 1464.01 Q95.4409 1456.88 93.6122 1453.33 Q91.8067 1449.77 88.1725 1449.77 M88.1725 1446.07 Q93.9826 1446.07 97.0381 1450.67 Q100.117 1455.26 100.117 1464.01 Q100.117 1472.73 97.0381 1477.34 Q93.9826 1481.92 88.1725 1481.92 Q82.3623 1481.92 79.2836 1477.34 Q76.2281 1472.73 76.2281 1464.01 Q76.2281 1455.26 79.2836 1450.67 Q82.3623 1446.07 88.1725 1446.07 Z" fill="#000000" fill-rule="nonzero" fill-opacity="1" /><path clip-path="url(#clip820)" d="M52.0384 1223.43 L68.3577 1223.43 L68.3577 1227.37 L46.4134 1227.37 L46.4134 1223.43 Q49.0754 1220.68 53.6587 1216.05 Q58.2652 1211.4 59.4458 1210.05 Q61.6911 1207.53 62.5707 1205.79 Q63.4735 1204.04 63.4735 1202.35 Q63.4735 1199.59 61.5291 1197.85 Q59.6078 1196.12 56.506 1196.12 Q54.3069 1196.12 51.8532 1196.88 Q49.4227 1197.65 46.6449 1199.2 L46.6449 1194.48 Q49.469 1193.34 51.9226 1192.76 Q54.3763 1192.18 56.4134 1192.18 Q61.7837 1192.18 64.9781 1194.87 Q68.1726 1197.55 68.1726 1202.04 Q68.1726 1204.17 67.3624 1206.1 Q66.5753 1207.99 64.4689 1210.59 Q63.8902 1211.26 60.7883 1214.48 Q57.6865 1217.67 52.0384 1223.43 Z" fill="#000000" fill-rule="nonzero" fill-opacity="1" /><path clip-path="url(#clip820)" d="M88.1725 1195.89 Q84.5614 1195.89 82.7327 1199.45 Q80.9271 1202.99 80.9271 1210.12 Q80.9271 1217.23 82.7327 1220.79 Q84.5614 1224.34 88.1725 1224.34 Q91.8067 1224.34 93.6122 1220.79 Q95.4409 1217.23 95.4409 1210.12 Q95.4409 1202.99 93.6122 1199.45 Q91.8067 1195.89 88.1725 1195.89 M88.1725 1192.18 Q93.9826 1192.18 97.0381 1196.79 Q100.117 1201.37 100.117 1210.12 Q100.117 1218.85 97.0381 1223.46 Q93.9826 1228.04 88.1725 1228.04 Q82.3623 1228.04 79.2836 1223.46 Q76.2281 1218.85 76.2281 1210.12 Q76.2281 1201.37 79.2836 1196.79 Q82.3623 1192.18 88.1725 1192.18 Z" fill="#000000" fill-rule="nonzero" fill-opacity="1" /><path clip-path="url(#clip820)" d="M60.8578 943 L49.0523 961.449 L60.8578 961.449 L60.8578 943 M59.6309 938.926 L65.5105 938.926 L65.5105 961.449 L70.4411 961.449 L70.4411 965.338 L65.5105 965.338 L65.5105 973.486 L60.8578 973.486 L60.8578 965.338 L45.256 965.338 L45.256 960.824 L59.6309 938.926 Z" fill="#000000" fill-rule="nonzero" fill-opacity="1" /><path clip-path="url(#clip820)" d="M88.1725 942.005 Q84.5614 942.005 82.7327 945.569 Q80.9271 949.111 80.9271 956.241 Q80.9271 963.347 82.7327 966.912 Q84.5614 970.454 88.1725 970.454 Q91.8067 970.454 93.6122 966.912 Q95.4409 963.347 95.4409 956.241 Q95.4409 949.111 93.6122 945.569 Q91.8067 942.005 88.1725 942.005 M88.1725 938.301 Q93.9826 938.301 97.0381 942.907 Q100.117 947.491 100.117 956.241 Q100.117 964.968 97.0381 969.574 Q93.9826 974.157 88.1725 974.157 Q82.3623 974.157 79.2836 969.574 Q76.2281 964.968 76.2281 956.241 Q76.2281 947.491 79.2836 942.907 Q82.3623 938.301 88.1725 938.301 Z" fill="#000000" fill-rule="nonzero" fill-opacity="1" /><path clip-path="url(#clip820)" d="M58.5893 700.46 Q55.4411 700.46 53.5893 702.613 Q51.7606 704.766 51.7606 708.515 Q51.7606 712.242 53.5893 714.418 Q55.4411 716.571 58.5893 716.571 Q61.7374 716.571 63.5661 714.418 Q65.4179 712.242 65.4179 708.515 Q65.4179 704.766 63.5661 702.613 Q61.7374 700.46 58.5893 700.46 M67.8716 685.807 L67.8716 690.067 Q66.1124 689.233 64.3068 688.793 Q62.5244 688.354 60.7652 688.354 Q56.1356 688.354 53.6819 691.479 Q51.2514 694.604 50.9041 700.923 Q52.2699 698.909 54.33 697.844 Q56.3902 696.756 58.8671 696.756 Q64.0754 696.756 67.0846 699.928 Q70.117 703.076 70.117 708.515 Q70.117 713.84 66.9689 717.057 Q63.8207 720.275 58.5893 720.275 Q52.5939 720.275 49.4227 715.691 Q46.2514 711.085 46.2514 702.358 Q46.2514 694.164 50.1402 689.303 Q54.0291 684.418 60.58 684.418 Q62.3393 684.418 64.1217 684.766 Q65.9272 685.113 67.8716 685.807 Z" fill="#000000" fill-rule="nonzero" fill-opacity="1" /><path clip-path="url(#clip820)" d="M88.1725 688.122 Q84.5614 688.122 82.7327 691.687 Q80.9271 695.229 80.9271 702.358 Q80.9271 709.465 82.7327 713.029 Q84.5614 716.571 88.1725 716.571 Q91.8067 716.571 93.6122 713.029 Q95.4409 709.465 95.4409 702.358 Q95.4409 695.229 93.6122 691.687 Q91.8067 688.122 88.1725 688.122 M88.1725 684.418 Q93.9826 684.418 97.0381 689.025 Q100.117 693.608 100.117 702.358 Q100.117 711.085 97.0381 715.691 Q93.9826 720.275 88.1725 720.275 Q82.3623 720.275 79.2836 715.691 Q76.2281 711.085 76.2281 702.358 Q76.2281 693.608 79.2836 689.025 Q82.3623 684.418 88.1725 684.418 Z" fill="#000000" fill-rule="nonzero" fill-opacity="1" /><path clip-path="url(#clip820)" d="M58.0106 449.309 Q54.6773 449.309 52.756 451.091 Q50.8578 452.874 50.8578 455.999 Q50.8578 459.124 52.756 460.906 Q54.6773 462.688 58.0106 462.688 Q61.3439 462.688 63.2652 460.906 Q65.1865 459.1 65.1865 455.999 Q65.1865 452.874 63.2652 451.091 Q61.367 449.309 58.0106 449.309 M53.3347 447.318 Q50.3254 446.577 48.6356 444.517 Q46.969 442.457 46.969 439.494 Q46.969 435.351 49.9088 432.943 Q52.8717 430.536 58.0106 430.536 Q63.1726 430.536 66.1124 432.943 Q69.0522 435.351 69.0522 439.494 Q69.0522 442.457 67.3624 444.517 Q65.6957 446.577 62.7096 447.318 Q66.0892 448.105 67.9642 450.397 Q69.8624 452.688 69.8624 455.999 Q69.8624 461.022 66.7837 463.707 Q63.7281 466.392 58.0106 466.392 Q52.293 466.392 49.2143 463.707 Q46.1588 461.022 46.1588 455.999 Q46.1588 452.688 48.0569 450.397 Q49.9551 448.105 53.3347 447.318 M51.6217 439.934 Q51.6217 442.619 53.2884 444.124 Q54.9782 445.628 58.0106 445.628 Q61.0198 445.628 62.7096 444.124 Q64.4226 442.619 64.4226 439.934 Q64.4226 437.249 62.7096 435.744 Q61.0198 434.239 58.0106 434.239 Q54.9782 434.239 53.2884 435.744 Q51.6217 437.249 51.6217 439.934 Z" fill="#000000" fill-rule="nonzero" fill-opacity="1" /><path clip-path="url(#clip820)" d="M88.1725 434.239 Q84.5614 434.239 82.7327 437.804 Q80.9271 441.346 80.9271 448.476 Q80.9271 455.582 82.7327 459.147 Q84.5614 462.688 88.1725 462.688 Q91.8067 462.688 93.6122 459.147 Q95.4409 455.582 95.4409 448.476 Q95.4409 441.346 93.6122 437.804 Q91.8067 434.239 88.1725 434.239 M88.1725 430.536 Q93.9826 430.536 97.0381 435.142 Q100.117 439.726 100.117 448.476 Q100.117 457.202 97.0381 461.809 Q93.9826 466.392 88.1725 466.392 Q82.3623 466.392 79.2836 461.809 Q76.2281 457.202 76.2281 448.476 Q76.2281 439.726 79.2836 435.142 Q82.3623 430.536 88.1725 430.536 Z" fill="#000000" fill-rule="nonzero" fill-opacity="1" /><path clip-path="url(#clip820)" d="M18.6589 207.903 L26.2978 207.903 L26.2978 181.537 L17.9876 183.204 L17.9876 178.945 L26.2515 177.278 L30.9274 177.278 L30.9274 207.903 L38.5662 207.903 L38.5662 211.838 L18.6589 211.838 L18.6589 207.903 Z" fill="#000000" fill-rule="nonzero" fill-opacity="1" /><path clip-path="url(#clip820)" d="M58.0106 180.357 Q54.3995 180.357 52.5708 183.922 Q50.7652 187.463 50.7652 194.593 Q50.7652 201.699 52.5708 205.264 Q54.3995 208.806 58.0106 208.806 Q61.6448 208.806 63.4504 205.264 Q65.2791 201.699 65.2791 194.593 Q65.2791 187.463 63.4504 183.922 Q61.6448 180.357 58.0106 180.357 M58.0106 176.653 Q63.8207 176.653 66.8763 181.26 Q69.955 185.843 69.955 194.593 Q69.955 203.32 66.8763 207.926 Q63.8207 212.51 58.0106 212.51 Q52.2004 212.51 49.1217 207.926 Q46.0662 203.32 46.0662 194.593 Q46.0662 185.843 49.1217 181.26 Q52.2004 176.653 58.0106 176.653 Z" fill="#000000" fill-rule="nonzero" fill-opacity="1" /><path clip-path="url(#clip820)" d="M88.1725 180.357 Q84.5614 180.357 82.7327 183.922 Q80.9271 187.463 80.9271 194.593 Q80.9271 201.699 82.7327 205.264 Q84.5614 208.806 88.1725 208.806 Q91.8067 208.806 93.6122 205.264 Q95.4409 201.699 95.4409 194.593 Q95.4409 187.463 93.6122 183.922 Q91.8067 180.357 88.1725 180.357 M88.1725 176.653 Q93.9826 176.653 97.0381 181.26 Q100.117 185.843 100.117 194.593 Q100.117 203.32 97.0381 207.926 Q93.9826 212.51 88.1725 212.51 Q82.3623 212.51 79.2836 207.926 Q76.2281 203.32 76.2281 194.593 Q76.2281 185.843 79.2836 181.26 Q82.3623 176.653 88.1725 176.653 Z" fill="#000000" fill-rule="nonzero" fill-opacity="1" /><path clip-path="url(#clip821)" d="M159.059 1451.28 L159.588 1454.9 L160.117 1456.35 L160.646 1457.42 L161.175 1458.29 L161.704 1459.03 L162.233 1459.67 L162.762 1460.24 L163.291 1460.74 L163.82 1461.19 L164.349 1461.59 L164.878 1461.95 L165.407 1462.27 L165.935 1462.56 L166.464 1462.82 L166.993 1463.04 L167.522 1463.25 L168.051 1463.42 L168.58 1463.57 L169.109 1463.69 L169.638 1463.79 L170.167 1463.87 L170.696 1463.93 L171.225 1463.96 L171.754 1463.97 L501.801 1463.97 L501.801 1438.58 L539.883 1438.58 L539.883 1463.97 L641.436 1463.97 L641.436 1463.97 L742.989 1463.97 L742.989 1438.58 L781.072 1438.58 L781.072 1463.97 L1111.12 1463.97 L1111.65 1463.96 L1112.18 1463.93 L1112.71 1463.87 L1113.23 1463.79 L1113.76 1463.69 L1114.29 1463.57 L1114.82 1463.42 L1115.35 1463.25 L1115.88 1463.04 L1116.41 1462.82 L1116.94 1462.56 L1117.47 1462.27 L1118 1461.95 L1118.52 1461.59 L1119.05 1461.19 L1119.58 1460.74 L1120.11 1460.24 L1120.64 1459.67 L1121.17 1459.03 L1121.7 1458.29 L1122.23 1457.42 L1122.76 1456.35 L1123.28 1454.9 L1123.81 1451.28 L1123.81 461.135 L1123.28 457.509 L1122.76 456.062 L1122.23 454.989 L1121.7 454.118 L1121.17 453.379 L1120.64 452.739 L1120.11 452.174 L1119.58 451.673 L1119.05 451.226 L1118.52 450.824 L1118 450.464 L1117.47 450.141 L1116.94 449.853 L1116.41 449.595 L1115.88 449.367 L1115.35 449.167 L1114.82 448.993 L1114.29 448.844 L1113.76 448.719 L1113.23 448.618 L1112.71 448.54 L1112.18 448.485 L1111.65 448.452 L1111.12 448.441 L749.331 448.441 L704.907 956.206 L704.907 1083.15 L704.907 1083.15 L577.966 1083.15 L577.966 1083.15 L577.966 956.206 L533.542 448.441 L171.754 448.441 L171.225 448.452 L170.696 448.485 L170.167 448.54 L169.638 448.618 L169.109 448.719 L168.58 448.844 L168.051 448.993 L167.522 449.167 L166.993 449.367 L166.464 449.595 L165.935 449.853 L165.407 450.141 L164.878 450.464 L164.349 450.824 L163.82 451.226 L163.291 451.673 L162.762 452.174 L162.233 452.739 L161.704 453.379 L161.175 454.118 L160.646 454.989 L160.117 456.062 L159.588 457.509 L159.059 461.135 L159.059 1451.28 L159.059 1451.28  Z" fill="#d3d3d3" fill-rule="evenodd" fill-opacity="1"/>
<polyline clip-path="url(#clip821)" style="stroke:#000000; stroke-linecap:round; stroke-linejoin:round; stroke-width:4; stroke-opacity:1; fill:none" points="159.059,1451.28 159.588,1454.9 160.117,1456.35 160.646,1457.42 161.175,1458.29 161.704,1459.03 162.233,1459.67 162.762,1460.24 163.291,1460.74 163.82,1461.19 164.349,1461.59 164.878,1461.95 165.407,1462.27 165.935,1462.56 166.464,1462.82 166.993,1463.04 167.522,1463.25 168.051,1463.42 168.58,1463.57 169.109,1463.69 169.638,1463.79 170.167,1463.87 170.696,1463.93 171.225,1463.96 171.754,1463.97 501.801,1463.97 501.801,1438.58 539.883,1438.58 539.883,1463.97 641.436,1463.97 742.989,1463.97 742.989,1438.58 781.072,1438.58 781.072,1463.97 1111.12,1463.97 1111.65,1463.96 1112.18,1463.93 1112.71,1463.87 1113.23,1463.79 1113.76,1463.69 1114.29,1463.57 1114.82,1463.42 1115.35,1463.25 1115.88,1463.04 1116.41,1462.82 1116.94,1462.56 1117.47,1462.27 1118,1461.95 1118.52,1461.59 1119.05,1461.19 1119.58,1460.74 1120.11,1460.24 1120.64,1459.67 1121.17,1459.03 1121.7,1458.29 1122.23,1457.42 1122.76,1456.35 1123.28,1454.9 1123.81,1451.28 1123.81,461.135 1123.28,457.509 1122.76,456.062 1122.23,454.989 1121.7,454.118 1121.17,453.379 1120.64,452.739 1120.11,452.174 1119.58,451.673 1119.05,451.226 1118.52,450.824 1118,450.464 1117.47,450.141 1116.94,449.853 1116.41,449.595 1115.88,449.367 1115.35,449.167 1114.82,448.993 1114.29,448.844 1113.76,448.719 1113.23,448.618 1112.71,448.54 1112.18,448.485 1111.65,448.452 1111.12,448.441 749.331,448.441 704.907,956.206 704.907,1083.15 577.966,1083.15 577.966,956.206 533.542,448.441 171.754,448.441 171.225,448.452 170.696,448.485 170.167,448.54 169.638,448.618 169.109,448.719 168.58,448.844 168.051,448.993 167.522,449.167 166.993,449.367 166.464,449.595 165.935,449.853 165.407,450.141 164.878,450.464 164.349,450.824 163.82,451.226 163.291,451.673 162.762,452.174 162.233,452.739 161.704,453.379 161.175,454.118 160.646,454.989 160.117,456.062 159.588,457.509 159.059,461.135 159.059,1451.28 "/>
</svg>
